<svg width="62" height="63" viewBox="0 0 62 63" fill="none" xmlns="http://www.w3.org/2000/svg">
<g clip-path="url(#clip0_0_1449)">
<path opacity="0.135393" d="M31 62.2061C48.1208 62.2061 62 48.3269 62 31.2061C62 14.0852 48.1208 0.206055 31 0.206055C13.8792 0.206055 0 14.0852 0 31.2061C0 48.3269 13.8792 62.2061 31 62.2061Z" fill="#7E5FFF"/>
<path d="M31 48.6489C40.6334 48.6489 48.4428 40.8395 48.4428 31.2061C48.4428 21.5727 40.6334 13.7633 31 13.7633C21.3666 13.7633 13.5572 21.5727 13.5572 31.2061C13.5572 40.8395 21.3666 48.6489 31 48.6489Z" fill="#7E5FFF"/>
<path d="M32.536 36.7881V32.1561H36.76V29.4201H32.536V24.7881H29.584V29.4201H25.24V32.1561H29.584V36.7881H32.536Z" fill="white"/>
</g>
<defs>
<clipPath id="clip0_0_1449">
<rect width="62" height="63" fill="white"/>
</clipPath>
</defs>
</svg>
