<svg width="24.000000" height="27.000000" viewBox="0 0 24 27" fill="none" xmlns="http://www.w3.org/2000/svg" xmlns:xlink="http://www.w3.org/1999/xlink">
	<desc>
			Created with Pixso.
	</desc>
	<defs>
		<clipPath id="clip1_1995">
			<rect id="IMAGE" width="24.000000" height="27.000000" fill="white" fill-opacity="0"/>
		</clipPath>
	</defs>
	<g clip-path="url(#clip1_1995)">
		<path id="Vector" d="M11.99 26.48L0.6 19.94L0.6 6.87L11.99 13.41L11.99 26.48Z" fill="#FFFFFF" fill-opacity="1.000000" fill-rule="evenodd"/>
		<path id="Vector" d="M0.6 19.94L0.6 6.87L11.99 13.41L11.99 26.48L0.6 19.94Z" stroke="#1C1C1C" stroke-opacity="1.000000" stroke-width="1.200000"/>
		<path id="Vector" d="M23.39 6.88L11.99 13.41L0.6 6.87L12 0.34L23.39 6.88Z" fill="#4E5EFF" fill-opacity="1.000000" fill-rule="evenodd"/>
		<path id="Vector" d="M11.99 13.41L0.6 6.87L12 0.34L23.39 6.88L11.99 13.41Z" stroke="#1C1C1C" stroke-opacity="1.000000" stroke-width="1.200000"/>
		<path id="Vector" d="M23.39 19.94L11.99 26.48L11.99 13.41L23.39 6.87L23.39 19.94Z" fill="#FFFFFF" fill-opacity="1.000000" fill-rule="evenodd"/>
		<path id="Vector" d="M11.99 26.48L11.99 13.41L23.39 6.87L23.39 19.94L11.99 26.48Z" stroke="#1C1C1C" stroke-opacity="1.000000" stroke-width="1.200000"/>
	</g>
</svg>
