<svg width="254.000000" height="75.000000" viewBox="0 0 254 75" fill="none" xmlns="http://www.w3.org/2000/svg" xmlns:xlink="http://www.w3.org/1999/xlink">
	<desc>
			Created with Pixso.
	</desc>
	<defs>
		<clipPath id="clip1_537">
			<rect id="IMAGE" width="254.000000" height="75.000000" fill="white" fill-opacity="0"/>
		</clipPath>
	</defs>
	<g clip-path="url(#clip1_537)">
		<path id="Vector" d="M152.24 46.84C150.25 48.95 147.71 50.02 144.68 50.02C141.64 50.02 139.1 48.95 137.12 46.84C135.23 44.83 134.15 41.62 134.15 38.02C134.15 34.52 135.24 31.35 137.15 29.33C139.15 27.22 141.68 26.14 144.68 26.13C147.67 26.14 150.2 27.22 152.2 29.33C154.11 31.35 155.21 34.52 155.21 38.02C155.21 41.62 154.13 44.83 152.24 46.84ZM125.67 38.02C125.67 38.19 125.67 38.35 125.68 38.51C122.64 35.76 118.25 34.74 115.57 34.21C110.61 33.17 106.82 32.22 106.82 28.71C106.82 26.23 109.05 24.43 113.34 24.74C117.26 25.02 118.91 27.4 119.36 29.7C119.42 30.07 119.6 30.35 120.03 30.35L127.08 30.41C127.11 30.41 127.14 30.41 127.17 30.4C126.18 32.71 125.67 35.27 125.67 38.02ZM113.68 50.9C110.27 50.9 106.52 49.7 105.65 45.05C105.58 44.6 105.37 44.42 105.03 44.41L98.21 44.32L98.21 32.35C99.11 35.86 102.08 38.29 108.49 39.72C112.78 40.74 120.23 41.39 120.23 45.77C120.23 48.82 117.96 50.97 113.68 50.9ZM79.75 50.03C74.26 50.03 69.22 45.73 69.22 38.03C69.22 31.99 73 26.14 79.79 26.14C82.73 26.14 90.19 27.14 90.19 38.03C90.19 48.95 82.4 50.03 79.75 50.03L79.75 50.03ZM163.49 35.09C165.05 37.16 167.87 38.7 172.46 39.72C176.75 40.74 184.2 41.39 184.2 45.77C184.2 48.82 181.93 50.97 177.65 50.9C174.25 50.9 170.49 49.7 169.62 45.05C169.55 44.6 169.34 44.42 169 44.41L162.68 44.33C163.35 42.37 163.69 40.26 163.69 38.03C163.69 37.04 163.62 36.06 163.49 35.09ZM177.19 57C184.75 57 193.65 54.2 192.96 45.13C192.19 37.08 183.76 35.04 179.54 34.21C174.58 33.17 170.79 32.22 170.79 28.71C170.79 26.23 173.02 24.43 177.31 24.74C181.23 25.02 182.88 27.4 183.33 29.7C183.39 30.07 183.57 30.35 184 30.35L191.05 30.41C191.58 30.41 191.75 30.14 191.68 29.76C190.3 21.37 183.25 19 176.75 19C170.27 19 162.46 20.8 161.9 28.82C161.88 29.13 161.88 29.43 161.88 29.73C160.85 27.6 159.36 25.64 157.44 23.91C153.9 20.74 149.49 19.04 144.67 19L144.51 19C142.21 19 139.96 19.42 137.82 20.25C135.65 21.11 133.65 22.35 131.92 23.91C130.1 25.55 128.67 27.39 127.64 29.39C126.12 21.3 119.18 19 112.78 19C106.83 19 99.76 20.52 98.21 26.98L98.21 20.57C98.21 20.41 98.15 20.25 98.03 20.13C97.91 20.02 97.76 19.95 97.59 19.95L90.95 19.95C90.79 19.95 90.63 20.02 90.51 20.14C90.4 20.25 90.33 20.41 90.33 20.57L90.33 22.3C90.33 22.59 90.14 22.69 89.9 22.52C87.54 20.82 84.04 19 79.84 19C77.48 19 75.23 19.41 73.14 20.22C71.05 21.04 69.07 22.28 67.24 23.91C65.17 25.79 63.59 27.92 62.56 30.26C61.52 32.6 61 35.22 61 38.03C61 40.65 61.46 43.12 62.38 45.34C63.29 47.57 64.69 49.63 66.53 51.46C68.36 53.3 70.42 54.69 72.63 55.61C74.84 56.53 77.28 56.99 79.88 56.99C84.34 56.99 87.7 55.1 89.89 53.38C90.13 53.2 90.33 53.3 90.33 53.6L90.33 55.41C90.33 55.76 90.61 56.03 90.96 56.03L97.59 56.03C97.76 56.03 97.91 55.97 98.03 55.85C98.15 55.74 98.21 55.58 98.21 55.41L98.21 49.3C101.34 56.61 109.31 56.99 113.22 56.99C119.74 56.99 127.26 54.91 128.75 48.51C129.47 49.57 130.29 50.56 131.2 51.46C134.76 55.01 139.42 56.93 144.68 56.98L144.9 56.98C147.4 56.98 149.81 56.51 152.07 55.56C154.35 54.61 156.42 53.21 158.16 51.46C159.46 50.17 160.57 48.71 161.45 47.11C163.82 56.54 172.93 56.99 177.19 56.99L177.19 57Z" fill="#FFFFFF" fill-opacity="1.000000" fill-rule="evenodd"/>
	</g>
</svg>
