<svg width="254.000000" height="75.000000" viewBox="0 0 254 75" fill="none" xmlns="http://www.w3.org/2000/svg" xmlns:xlink="http://www.w3.org/1999/xlink">
	<desc>
			Created with Pixso.
	</desc>
	<defs>
		<clipPath id="clip1_539">
			<rect id="IMAGE" width="254.000000" height="75.000000" fill="white" fill-opacity="0"/>
		</clipPath>
	</defs>
	<g clip-path="url(#clip1_539)">
		<path id="Vector" d="M116.43 26.18L138.76 48.55L159.16 27.99C160.23 26.91 160.32 25.62 159.16 24.46L140.57 5.84C139.28 4.54 137.99 4.59 136.74 5.84L116.43 26.18ZM144.14 26.22C144.14 29.27 141.67 31.74 138.63 31.74C135.59 31.74 133.13 29.27 133.13 26.22C133.13 23.18 135.59 20.71 138.63 20.71C141.67 20.71 144.14 23.18 144.14 26.22Z" fill="#FFFFFF" fill-opacity="1.000000" fill-rule="evenodd"/>
		<path id="Vector" d="M115.01 27.52L137.34 49.89L117.03 70.23C115.79 71.48 114.5 71.52 113.2 70.23L94.62 51.61C93.45 50.45 93.54 49.15 94.62 48.08L115.01 27.52ZM123.19 55.4C126.23 55.4 128.69 52.93 128.69 49.89C128.69 46.84 126.23 44.37 123.19 44.37C120.14 44.37 117.68 46.84 117.68 49.89C117.68 52.93 120.14 55.4 123.19 55.4ZM112.6 49.89C112.6 52.93 110.14 55.4 107.09 55.4C104.05 55.4 101.59 52.93 101.59 49.89C101.59 46.84 104.05 44.37 107.09 44.37C110.14 44.37 112.6 46.84 112.6 49.89Z" fill="#FFFFFF" fill-opacity="1.000000" fill-rule="evenodd"/>
	</g>
</svg>
