<svg width="254.000000" height="75.000000" viewBox="0 0 254 75" fill="none" xmlns="http://www.w3.org/2000/svg" xmlns:xlink="http://www.w3.org/1999/xlink">
	<desc>
			Created with Pixso.
	</desc>
	<defs>
		<clipPath id="clip1_544">
			<rect id="IMAGE" width="254.000000" height="75.000000" fill="white" fill-opacity="0"/>
		</clipPath>
	</defs>
	<g clip-path="url(#clip1_544)">
		<path id="Vector" d="M97.44 28.62L105.77 28.62L105.77 23.42L83 23.42L83 28.62L91.29 28.62L91.29 50.57L97.44 50.57L97.44 28.62ZM132.31 50.57L138.46 50.57L138.46 23.42L132.31 23.42L132.31 34.75L119.97 34.75L119.97 23.42L113.82 23.42L113.82 50.57L119.97 50.57L119.97 39.86L132.31 39.86L132.31 50.57ZM167.53 31.41L171 27.03C169.59 25.79 167.93 24.8 165.99 24.08C164.06 23.36 162.08 23 160.06 23C157.28 23 154.75 23.6 152.48 24.82C150.21 26.03 148.43 27.71 147.13 29.84C145.83 31.97 145.19 34.35 145.19 36.96C145.19 39.59 145.82 41.98 147.09 44.11C148.36 46.24 150.1 47.93 152.31 49.15C154.51 50.38 156.98 51 159.71 51C161.57 51 163.52 50.67 165.55 50.01C167.57 49.35 169.31 48.49 170.76 47.43L170.76 36.88L165.43 36.88L165.43 44.13C164.55 44.6 163.64 44.96 162.7 45.24C161.77 45.51 160.9 45.64 160.1 45.64C158.51 45.64 157.06 45.26 155.75 44.5C154.44 43.74 153.41 42.69 152.64 41.36C151.87 40.03 151.49 38.56 151.49 36.96C151.49 35.35 151.87 33.9 152.62 32.59C153.37 31.29 154.41 30.25 155.72 29.49C157.03 28.73 158.47 28.35 160.06 28.35C161.38 28.35 162.7 28.62 164.03 29.16C165.35 29.7 166.52 30.45 167.53 31.41Z" fill="#FFFFFF" fill-opacity="1.000000" fill-rule="evenodd"/>
	</g>
</svg>
